HIERARCHY
ROOT Hips
{
  OFFSET 15.162 16.020 -254.327
  CHANNELS 6 Xposition Yposition Zposition Zrotation Xrotation Yrotation
  JOINT LeftUpLeg
  {
    OFFSET 5.870 -4.754 0.900
    CHANNELS 6 Xposition Yposition Zposition Zrotation Xrotation Yrotation
    JOINT LeftLeg
    {
      OFFSET -0.000 -44.440 0.000
      CHANNELS 6 Xposition Yposition Zposition Zrotation Xrotation Yrotation
      JOINT LeftFoot
      {
        OFFSET 0.000 -37.174 -0.000
        CHANNELS 6 Xposition Yposition Zposition Zrotation Xrotation Yrotation
        End Site
        {
          OFFSET -0.000 -7.819 4.514
        }
      }
    }
  }
  JOINT RightUpLeg
  {
    OFFSET -5.422 -5.888 2.213
    CHANNELS 6 Xposition Yposition Zposition Zrotation Xrotation Yrotation
    JOINT RightLeg
    {
      OFFSET -0.000 -45.311 0.000
      CHANNELS 6 Xposition Yposition Zposition Zrotation Xrotation Yrotation
      JOINT RightFoot
      {
        OFFSET -0.000 -36.999 -0.000
        CHANNELS 6 Xposition Yposition Zposition Zrotation Xrotation Yrotation
        End Site
        {
          OFFSET 0.000 -7.781 4.492
        }
      }
    }
  }
  JOINT Spine
  {
    OFFSET 0.000 6.405 -6.405
    CHANNELS 6 Xposition Yposition Zposition Zrotation Xrotation Yrotation
    JOINT LeftShoulder
    {
      OFFSET -0.000 38.217 0.000
      CHANNELS 6 Xposition Yposition Zposition Zrotation Xrotation Yrotation
      JOINT LeftArm
      {
        OFFSET 16.139 0.000 -0.000
        CHANNELS 6 Xposition Yposition Zposition Zrotation Xrotation Yrotation
        JOINT LeftForeArm
        {
          OFFSET 23.246 0.000 0.000
          CHANNELS 6 Xposition Yposition Zposition Zrotation Xrotation Yrotation
          JOINT LeftHand
          {
            OFFSET 23.070 -0.000 -0.000
            CHANNELS 6 Xposition Yposition Zposition Zrotation Xrotation Yrotation
            JOINT LeftHandThumb1
            {
            OFFSET 4.970 -0.620 3.390
            CHANNELS 6 Xposition Yposition Zposition Zrotation Xrotation Yrotation
              JOINT LeftHandThumb2
              {
              OFFSET 2.150 -0.000 0.000
              CHANNELS 6 Xposition Yposition Zposition Zrotation Xrotation Yrotation
                JOINT LeftHandThumb3
                {
                OFFSET 2.200 -0.000 0.000
                CHANNELS 6 Xposition Yposition Zposition Zrotation Xrotation Yrotation
                  JOINT LeftHandThumb4
                  {
                  OFFSET 1.700 -0.000 0.000
                  CHANNELS 6 Xposition Yposition Zposition Zrotation Xrotation Yrotation
                  }
                }
              }
            }
            JOINT LeftHandIndex1
            {
            OFFSET 8.730 0.680 2.070
            CHANNELS 6 Xposition Yposition Zposition Zrotation Xrotation Yrotation
              JOINT LeftHandIndex2
              {
              OFFSET 2.670 -0.000 0.000
              CHANNELS 6 Xposition Yposition Zposition Zrotation Xrotation Yrotation
                JOINT LeftHandIndex3
                {
                OFFSET 2.130 -0.000 0.000
                CHANNELS 6 Xposition Yposition Zposition Zrotation Xrotation Yrotation
                  JOINT LeftHandIndex4
                  {
                  OFFSET 1.800 -0.000 0.000
                  CHANNELS 6 Xposition Yposition Zposition Zrotation Xrotation Yrotation
                  }
                }
              }
            }
            JOINT LeftHandMiddle1
            {
            OFFSET 9.220 0.670 0.550
            CHANNELS 6 Xposition Yposition Zposition Zrotation Xrotation Yrotation
              JOINT LeftHandMiddle2
              {
              OFFSET 2.660 -0.000 0.000
              CHANNELS 6 Xposition Yposition Zposition Zrotation Xrotation Yrotation
                JOINT LeftHandMiddle3
                {
                OFFSET 2.280 -0.000 0.000
                CHANNELS 6 Xposition Yposition Zposition Zrotation Xrotation Yrotation
                  JOINT LeftHandMiddle4
                  {
                  OFFSET 1.500 -0.000 0.000
                  CHANNELS 6 Xposition Yposition Zposition Zrotation Xrotation Yrotation
                  }
                }
              }
            }
            JOINT LeftHandRing1
            {
            OFFSET 9.250 0.670 -1.130
            CHANNELS 6 Xposition Yposition Zposition Zrotation Xrotation Yrotation
              JOINT LeftHandRing2
              {
              OFFSET 2.470 -0.000 0.000
              CHANNELS 6 Xposition Yposition Zposition Zrotation Xrotation Yrotation
                JOINT LeftHandRing3
                {
                OFFSET 2.210 -0.000 0.000
                CHANNELS 6 Xposition Yposition Zposition Zrotation Xrotation Yrotation
                  JOINT LeftHandRing4
                  {
                  OFFSET 1.800 -0.000 0.000
                  CHANNELS 6 Xposition Yposition Zposition Zrotation Xrotation Yrotation
                  }
                }
              }
            }
            JOINT LeftHandPinky1
            {
            OFFSET 9.350 0.660 -2.720
            CHANNELS 6 Xposition Yposition Zposition Zrotation Xrotation Yrotation
              JOINT LeftHandPinky2
              {
              OFFSET 1.630 -0.000 0.000
              CHANNELS 6 Xposition Yposition Zposition Zrotation Xrotation Yrotation
                JOINT LeftHandPinky3
                {
                OFFSET 1.710 -0.000 0.000
                CHANNELS 6 Xposition Yposition Zposition Zrotation Xrotation Yrotation
                  JOINT LeftHandPinky4
                  {
                  OFFSET 1.800 -0.000 0.000
                  CHANNELS 6 Xposition Yposition Zposition Zrotation Xrotation Yrotation
                  }
                }
              }
            }
          }
        }
      }
    }
    JOINT RightShoulder
    {
      OFFSET -0.000 38.217 0.000
      CHANNELS 6 Xposition Yposition Zposition Zrotation Xrotation Yrotation
      JOINT RightArm
      {
        OFFSET -16.670 0.000 -0.000
        CHANNELS 6 Xposition Yposition Zposition Zrotation Xrotation Yrotation
        JOINT RightForeArm
        {
          OFFSET -23.539 0.000 0.000
          CHANNELS 6 Xposition Yposition Zposition Zrotation Xrotation Yrotation
          JOINT RightHand
          {
            OFFSET -22.268 0.000 -0.000
            CHANNELS 6 Xposition Yposition Zposition Zrotation Xrotation Yrotation
            JOINT RightHandThumb1
            {
            OFFSET -4.970 -0.620 3.390
            CHANNELS 6 Xposition Yposition Zposition Zrotation Xrotation Yrotation
              JOINT RightHandThumb2
              {
              OFFSET -2.150 0.000 0.000
              CHANNELS 6 Xposition Yposition Zposition Zrotation Xrotation Yrotation
                JOINT RightHandThumb3
                {
                OFFSET -2.200 0.000 0.000
                CHANNELS 6 Xposition Yposition Zposition Zrotation Xrotation Yrotation
                  JOINT RightHandThumb4
                  {
                  OFFSET -1.700 0.000 0.000
                  CHANNELS 6 Xposition Yposition Zposition Zrotation Xrotation Yrotation
                  }
                }
              }
            }
            JOINT RightHandIndex1
            {
            OFFSET -8.730 0.680 2.070
            CHANNELS 6 Xposition Yposition Zposition Zrotation Xrotation Yrotation
              JOINT RightHandIndex2
              {
              OFFSET -2.670 0.000 0.000
              CHANNELS 6 Xposition Yposition Zposition Zrotation Xrotation Yrotation
                JOINT RightHandIndex3
                {
                OFFSET -2.130 0.000 0.000
                CHANNELS 6 Xposition Yposition Zposition Zrotation Xrotation Yrotation
                  JOINT RightHandIndex4
                  {
                  OFFSET -1.800 0.000 0.000
                  CHANNELS 6 Xposition Yposition Zposition Zrotation Xrotation Yrotation
                  }
                }
              }
            }
            JOINT RightHandMiddle1
            {
            OFFSET -9.220 0.670 0.550
            CHANNELS 6 Xposition Yposition Zposition Zrotation Xrotation Yrotation
              JOINT RightHandMiddle2
              {
              OFFSET -2.660 0.000 0.000
              CHANNELS 6 Xposition Yposition Zposition Zrotation Xrotation Yrotation
                JOINT RightHandMiddle3
                {
                OFFSET -2.280 0.000 0.000
                CHANNELS 6 Xposition Yposition Zposition Zrotation Xrotation Yrotation
                  JOINT RightHandMiddle4
                  {
                  OFFSET -1.500 0.000 0.000
                  CHANNELS 6 Xposition Yposition Zposition Zrotation Xrotation Yrotation
                  }
                }
              }
            }
            JOINT RightHandRing1
            {
            OFFSET -9.250 0.670 -1.130
            CHANNELS 6 Xposition Yposition Zposition Zrotation Xrotation Yrotation
              JOINT RightHandRing2
              {
              OFFSET -2.470 0.000 0.000
              CHANNELS 6 Xposition Yposition Zposition Zrotation Xrotation Yrotation
                JOINT RightHandRing3
                {
                OFFSET -2.210 0.000 0.000
                CHANNELS 6 Xposition Yposition Zposition Zrotation Xrotation Yrotation
                  JOINT RightHandRing4
                  {
                  OFFSET -1.800 0.000 0.000
                  CHANNELS 6 Xposition Yposition Zposition Zrotation Xrotation Yrotation
                  }
                }
              }
            }
            JOINT RightHandPinky1
            {
            OFFSET -9.350 0.660 -2.720
            CHANNELS 6 Xposition Yposition Zposition Zrotation Xrotation Yrotation
              JOINT RightHandPinky2
              {
              OFFSET -1.630 0.000 0.000
              CHANNELS 6 Xposition Yposition Zposition Zrotation Xrotation Yrotation
                JOINT RightHandPinky3
                {
                OFFSET -1.710 0.000 0.000
                CHANNELS 6 Xposition Yposition Zposition Zrotation Xrotation Yrotation
                  JOINT RightHandPinky4
                  {
                  OFFSET -1.800 0.000 0.000
                  CHANNELS 6 Xposition Yposition Zposition Zrotation Xrotation Yrotation
                  }
                }
              }
            }
          }
        }
      }
    }
    JOINT Neck
    {
      OFFSET -0.000 38.217 0.000
      CHANNELS 6 Xposition Yposition Zposition Zrotation Xrotation Yrotation
      JOINT Head
      {
        OFFSET -0.000 19.438 -0.000
        CHANNELS 6 Xposition Yposition Zposition Zrotation Xrotation Yrotation
        End Site
        {
          OFFSET -0.000 0.078 -0.000
        }
      }
    }
  }
}
MOTION
Frames:	5
Frame Time:	0.0333333
35.9831 18.841 -267.733 0.52918 14.1338 -31.4752 6.32054 -5.09062 2.75984 16.6614 0.819471 -6.98431 -2.38419e-05 -46.5973 -2.38419e-05 -4.62535 -2.34098 -0.18932 2.38419e-05 -35.6066 0 8.62344 -2.03984 5.30336 -5.09074 -7.18693 1.36487 -0.104935 -17.3722 -9.76625 -1.19209e-05 -47.9729 2.38419e-05 0.147309 -8.49067 0.0217552 2.38419e-05 -37.5364 0 6.74992 -22.3552 6.21857 0 5.7885 -5.78854 6.15295 -10.4453 -7.50021 1.19209e-05 38.2177 0 -49.7075 1.8783e-05 -8.37596 18.8269 0 0 -6.48334 27.8441 9.35551 21.6392 1.19209e-05 1.19209e-05 1.06332e-05 -1.12213e-05 -120.194 22.3598 -1.19209e-05 0 -2.44844 -0.460319 24.1708 0.0062 0.0497 0.0339 0 0 0 0 0.0215 0 0 0 0 0 0.022 0 0 0 0 0 0.017 0 0 0 0 -0.0068 0.0873 0.0207 0 0 0 0 0.0267 0 0 0 0 0 0.0213 0 0 0 0 0 0.018 0 0 0 0 -0.0067 0.0922 0.0055 0 0 0 0 0.0266 0 0 0 0 0 0.0228 0 0 0 0 0 0.015 0 0 0 0 -0.0067 0.0925 -0.0113 0 0 0 0 0.0247 0 0 0 0 0 0.0221 0 0 0 0 0 0.018 0 0 0 0 -0.0066 0.0935 -0.0272 0 0 0 0 0.0163 0 0 0 0 0 0.0171 0 0 0 0 0 0.018 0 0 0 0 1.19209e-05 38.2177 0 18.7128 -2.56132e-06 9.48749 -16.6379 -5.96046e-06 2.38419e-05 55.567 -8.86646 -15.5147 -26.1832 -1.19209e-05 0 7.3345e-05 1.70755e-06 79.2422 -20.7246 -1.19209e-05 -3.57628e-05 9.47074 0.0357521 5.80054 -0.0062 0.0497 0.0339 0 0 0 0 0.0215 0 0 0 0 0 0.022 0 0 0 0 0 0.017 0 0 0 0 0.0068 0.0873 0.0207 0 0 0 0 0.0267 0 0 0 0 0 0.0213 0 0 0 0 0 0.018 0 0 0 0 0.0067 0.0922 0.0055 0 0 0 0 0.0266 0 0 0 0 0 0.0228 0 0 0 0 0 0.015 0 0 0 0 0.0067 0.0925 -0.0113 0 0 0 0 0.0247 0 0 0 0 0 0.0221 0 0 0 0 0 0.018 0 0 0 0 0.0066 0.0935 -0.0272 0 0 0 0 0.0163 0 0 0 0 0 0.0171 0 0 0 0 0 0.018 0 0 0 0 1.19209e-05 38.2177 0 15.0168 16.8951 -4.45792 0 15.957 -4.76837e-05 9.8184e-06 -1.28066e-05 -5.12264e-06 
35.0985 16.8908 -267.74 4.37803 16.0549 -37.4859 6.08971 -4.38494 2.36356 15.0025 -0.816365 -3.29698 2.38419e-05 -46.3847 2.38419e-05 -3.58517 -2.88759 -0.180842 -4.76837e-05 -35.8062 -4.76837e-05 9.19476 -1.87882 5.62843 -5.0645 -6.31956 1.69947 -1.36933 -21.534 -7.31489 1.19209e-05 -47.1412 -2.38419e-05 2.99517 -7.31038 0.381458 0 -36.91 4.76837e-05 5.00437 -22.1059 4.66433 -4.76837e-05 6.07536 -6.07536 5.73281 -13.3803 -6.65409 -4.76837e-05 38.2177 -0.000119209 -47.985 1.36604e-05 -8.01236 17.9138 4.17233e-05 1.19209e-05 -7.66305 27.0762 7.05878 21.5801 1.19209e-05 -1.19209e-05 -4.9047e-06 -1.81331e-05 -120.271 21.0586 2.38419e-05 -4.76837e-05 -11.2973 -1.02965 18.1869 0.0062 0.0497 0.0339 0 0 0 0 0.0215 0 0 0 0 0 0.022 0 0 0 0 0 0.017 0 0 0 0 -0.0068 0.0873 0.0207 0 0 0 0 0.0267 0 0 0 0 0 0.0213 0 0 0 0 0 0.018 0 0 0 0 -0.0067 0.0922 0.0055 0 0 0 0 0.0266 0 0 0 0 0 0.0228 0 0 0 0 0 0.015 0 0 0 0 -0.0067 0.0925 -0.0113 0 0 0 0 0.0247 0 0 0 0 0 0.0221 0 0 0 0 0 0.018 0 0 0 0 -0.0066 0.0935 -0.0272 0 0 0 0 0.0163 0 0 0 0 0 0.0171 0 0 0 0 0 0.018 0 0 0 0 -4.76837e-05 38.2177 -0.000119209 16.0013 4.26887e-06 8.9263 -16.0923 1.19209e-05 7.15256e-05 57.9273 -3.58087 -11.6449 -26.2543 4.76837e-05 4.76837e-05 0.000103735 1.70755e-06 79.5522 -20.4006 4.76837e-05 -5.96046e-06 11.9658 0.13828 9.07671 -0.0062 0.0497 0.0339 0 0 0 0 0.0215 0 0 0 0 0 0.022 0 0 0 0 0 0.017 0 0 0 0 0.0068 0.0873 0.0207 0 0 0 0 0.0267 0 0 0 0 0 0.0213 0 0 0 0 0 0.018 0 0 0 0 0.0067 0.0922 0.0055 0 0 0 0 0.0266 0 0 0 0 0 0.0228 0 0 0 0 0 0.015 0 0 0 0 0.0067 0.0925 -0.0113 0 0 0 0 0.0247 0 0 0 0 0 0.0221 0 0 0 0 0 0.018 0 0 0 0 0.0066 0.0935 -0.0272 0 0 0 0 0.0163 0 0 0 0 0 0.0171 0 0 0 0 0 0.018 0 0 0 0 -4.76837e-05 38.2177 -0.000119209 13.6119 15.6266 -3.73186 1.19209e-05 17.0928 4.76837e-05 7.47052e-06 -1.23797e-05 -5.12264e-06 
35.0985 16.8908 -267.74 4.37803 16.0549 -37.4859 6.08971 -4.38494 2.36356 15.0025 -0.816365 -3.29698 2.38419e-05 -46.3847 2.38419e-05 -3.58517 -2.88759 -0.180842 -4.76837e-05 -35.8062 -4.76837e-05 9.19476 -1.87882 5.62843 -5.0645 -6.31956 1.69947 -1.36933 -21.534 -7.31489 1.19209e-05 -47.1412 -2.38419e-05 2.99517 -7.31038 0.381458 0 -36.91 4.76837e-05 5.00437 -22.1059 4.66433 -4.76837e-05 6.07536 -6.07536 5.73281 -13.3803 -6.65409 -4.76837e-05 38.2177 -0.000119209 -47.985 1.36604e-05 -8.01236 17.9138 4.17233e-05 1.19209e-05 -7.66305 27.0762 7.05878 21.5801 1.19209e-05 -1.19209e-05 -4.9047e-06 -1.81331e-05 -120.271 21.0586 2.38419e-05 -4.76837e-05 -11.2973 -1.02965 18.1869 0.0062 0.0497 0.0339 0 0 0 0 0.0215 0 0 0 0 0 0.022 0 0 0 0 0 0.017 0 0 0 0 -0.0068 0.0873 0.0207 0 0 0 0 0.0267 0 0 0 0 0 0.0213 0 0 0 0 0 0.018 0 0 0 0 -0.0067 0.0922 0.0055 0 0 0 0 0.0266 0 0 0 0 0 0.0228 0 0 0 0 0 0.015 0 0 0 0 -0.0067 0.0925 -0.0113 0 0 0 0 0.0247 0 0 0 0 0 0.0221 0 0 0 0 0 0.018 0 0 0 0 -0.0066 0.0935 -0.0272 0 0 0 0 0.0163 0 0 0 0 0 0.0171 0 0 0 0 0 0.018 0 0 0 0 -4.76837e-05 38.2177 -0.000119209 16.0013 4.26887e-06 8.9263 -16.0923 1.19209e-05 7.15256e-05 57.9273 -3.58087 -11.6449 -26.2543 4.76837e-05 4.76837e-05 0.000103735 1.70755e-06 79.5522 -20.4006 4.76837e-05 -5.96046e-06 11.9658 0.13828 9.07671 -0.0062 0.0497 0.0339 0 0 0 0 0.0215 0 0 0 0 0 0.022 0 0 0 0 0 0.017 0 0 0 0 0.0068 0.0873 0.0207 0 0 0 0 0.0267 0 0 0 0 0 0.0213 0 0 0 0 0 0.018 0 0 0 0 0.0067 0.0922 0.0055 0 0 0 0 0.0266 0 0 0 0 0 0.0228 0 0 0 0 0 0.015 0 0 0 0 0.0067 0.0925 -0.0113 0 0 0 0 0.0247 0 0 0 0 0 0.0221 0 0 0 0 0 0.018 0 0 0 0 0.0066 0.0935 -0.0272 0 0 0 0 0.0163 0 0 0 0 0 0.0171 0 0 0 0 0 0.018 0 0 0 0 -4.76837e-05 38.2177 -0.000119209 13.6119 15.6266 -3.73186 1.19209e-05 17.0928 4.76837e-05 7.47052e-06 -1.23797e-05 -5.12264e-06 
34.7014 16.3565 -267.774 5.18418 16.4927 -38.4375 6.03445 -4.30962 2.3736 14.8028 -1.18473 -3.34359 -4.76837e-05 -46.2937 -7.15256e-05 -3.21353 -3.05608 -0.171506 0 -35.922 4.76837e-05 9.4957 -1.92721 5.82242 -5.07822 -6.19381 1.69656 -1.80983 -22.6194 -7.65171 1.19209e-05 -46.8439 2.38419e-05 4.17228 -6.58468 0.47927 3.57628e-05 -36.6762 0 4.273 -22.071 4.01468 1.19209e-05 6.12257 -6.12257 5.65201 -13.9494 -6.89295 0 38.2177 4.76837e-05 -47.3082 5.12264e-06 -8.30947 17.7031 -5.96046e-06 0 -7.95957 27.7637 5.18735 21.4379 0 0 -2.8584e-06 -1.09262e-05 -119.321 20.6544 0 0 -12.7379 -0.890166 15.4017 0.0062 0.0497 0.0339 0 0 0 0 0.0215 0 0 0 0 0 0.022 0 0 0 0 0 0.017 0 0 0 0 -0.0068 0.0873 0.0207 0 0 0 0 0.0267 0 0 0 0 0 0.0213 0 0 0 0 0 0.018 0 0 0 0 -0.0067 0.0922 0.0055 0 0 0 0 0.0266 0 0 0 0 0 0.0228 0 0 0 0 0 0.015 0 0 0 0 -0.0067 0.0925 -0.0113 0 0 0 0 0.0247 0 0 0 0 0 0.0221 0 0 0 0 0 0.018 0 0 0 0 -0.0066 0.0935 -0.0272 0 0 0 0 0.0163 0 0 0 0 0 0.0171 0 0 0 0 0 0.018 0 0 0 0 0 38.2177 4.76837e-05 14.2722 -2.98821e-06 9.3382 -15.7674 -5.96046e-06 2.38419e-05 59.4353 -3.98658 -11.2734 -26.2493 -1.19209e-05 -4.76837e-05 7.05768e-07 6.83019e-06 78.201 -19.9894 2.38419e-05 4.76837e-05 11.7376 0.137648 9.38827 -0.0062 0.0497 0.0339 0 0 0 0 0.0215 0 0 0 0 0 0.022 0 0 0 0 0 0.017 0 0 0 0 0.0068 0.0873 0.0207 0 0 0 0 0.0267 0 0 0 0 0 0.0213 0 0 0 0 0 0.018 0 0 0 0 0.0067 0.0922 0.0055 0 0 0 0 0.0266 0 0 0 0 0 0.0228 0 0 0 0 0 0.015 0 0 0 0 0.0067 0.0925 -0.0113 0 0 0 0 0.0247 0 0 0 0 0 0.0221 0 0 0 0 0 0.018 0 0 0 0 0.0066 0.0935 -0.0272 0 0 0 0 0.0163 0 0 0 0 0 0.0171 0 0 0 0 0 0.018 0 0 0 0 0 38.2177 4.76837e-05 13.05 14.8604 -3.40195 2.38419e-05 17.4432 -2.38419e-05 8.53774e-06 -8.53774e-06 6.83019e-06 
34.4322 16.1119 -267.78 5.78227 16.5101 -39.3922 5.98514 -4.32618 2.36158 14.51 -1.15756 -3.19711 8.34465e-05 -46.2504 7.15256e-05 -3.05088 -3.19178 -0.170039 0 -35.9804 -2.38419e-05 9.67115 -1.96132 5.93613 -5.06645 -6.1244 1.7179 -2.18065 -23.1672 -7.59882 1.19209e-05 -46.7059 -4.76837e-05 4.91404 -6.07848 0.521621 -5.96046e-05 -36.5783 -2.38419e-05 3.90851 -22.0709 3.69115 -3.57628e-05 6.13318 -6.13315 5.51884 -14.1262 -7.15294 3.57628e-05 38.2177 -4.76837e-05 -46.9855 2.04906e-05 -8.34117 17.6073 -4.17233e-05 -3.57628e-05 -7.99206 28.0954 4.18221 21.3778 4.76837e-05 -1.19209e-05 -1.3068e-05 2.3629e-06 -118.147 20.4571 -1.19209e-05 -1.19209e-05 -13.0983 -0.762859 13.6335 0.0062 0.0497 0.0339 0 0 0 0 0.0215 0 0 0 0 0 0.022 0 0 0 0 0 0.017 0 0 0 0 -0.0068 0.0873 0.0207 0 0 0 0 0.0267 0 0 0 0 0 0.0213 0 0 0 0 0 0.018 0 0 0 0 -0.0067 0.0922 0.0055 0 0 0 0 0.0266 0 0 0 0 0 0.0228 0 0 0 0 0 0.015 0 0 0 0 -0.0067 0.0925 -0.0113 0 0 0 0 0.0247 0 0 0 0 0 0.0221 0 0 0 0 0 0.018 0 0 0 0 -0.0066 0.0935 -0.0272 0 0 0 0 0.0163 0 0 0 0 0 0.0171 0 0 0 0 0 0.018 0 0 0 0 3.57628e-05 38.2177 -4.76837e-05 13.6479 -4.69576e-06 9.49178 -15.4891 -1.19209e-05 -7.15256e-05 59.4515 -3.32634 -10.2387 -26.2143 2.38419e-05 2.38419e-05 8.82718e-07 6.83019e-06 75.2721 -19.3545 -2.38419e-05 1.19209e-05 11.6845 0.173649 10.2742 -0.0062 0.0497 0.0339 0 0 0 0 0.0215 0 0 0 0 0 0.022 0 0 0 0 0 0.017 0 0 0 0 0.0068 0.0873 0.0207 0 0 0 0 0.0267 0 0 0 0 0 0.0213 0 0 0 0 0 0.018 0 0 0 0 0.0067 0.0922 0.0055 0 0 0 0 0.0266 0 0 0 0 0 0.0228 0 0 0 0 0 0.015 0 0 0 0 0.0067 0.0925 -0.0113 0 0 0 0 0.0247 0 0 0 0 0 0.0221 0 0 0 0 0 0.018 0 0 0 0 0.0066 0.0935 -0.0272 0 0 0 0 0.0163 0 0 0 0 0 0.0171 0 0 0 0 0 0.018 0 0 0 0 3.57628e-05 38.2177 -4.76837e-05 13.612 14.6985 -3.51586 -4.76837e-05 17.592 2.38419e-05 1.28066e-05 -1.19528e-05 3.41509e-06 
